<?xml version="1.0" encoding="UTF-8" standalone="no"?>
<!-- Created with Inkscape (http://www.inkscape.org/) -->

<svg
   xmlns:dc="http://purl.org/dc/elements/1.1/"
   xmlns:cc="http://creativecommons.org/ns#"
   xmlns:rdf="http://www.w3.org/1999/02/22-rdf-syntax-ns#"
   xmlns:svg="http://www.w3.org/2000/svg"
   xmlns="http://www.w3.org/2000/svg"
   xmlns:sodipodi="http://sodipodi.sourceforge.net/DTD/sodipodi-0.dtd"
   xmlns:inkscape="http://www.inkscape.org/namespaces/inkscape"
   id="svg2"
   version="1.1"
   inkscape:version="0.48.4 r9939"
   width="4202.7212"
   height="2976.2773"
   sodipodi:docname="logo.svg">
  <metadata
     id="metadata8">
    <rdf:RDF>
      <cc:Work
         rdf:about="">
        <dc:format>image/svg+xml</dc:format>
        <dc:type
           rdf:resource="http://purl.org/dc/dcmitype/StillImage" />
        <dc:title />
      </cc:Work>
    </rdf:RDF>
  </metadata>
  <defs
     id="defs6" />
  <sodipodi:namedview
     pagecolor="#000000"
     bordercolor="#666666"
     borderopacity="1"
     objecttolerance="10"
     gridtolerance="10"
     guidetolerance="10"
     inkscape:pageopacity="1"
     inkscape:pageshadow="2"
     inkscape:window-width="1615"
     inkscape:window-height="1026"
     id="namedview4"
     showgrid="false"
     inkscape:zoom="0.162"
     inkscape:cx="1723.8695"
     inkscape:cy="1411.8813"
     inkscape:window-x="65"
     inkscape:window-y="24"
     inkscape:window-maximized="1"
     inkscape:current-layer="layer2"
     fit-margin-top="20"
     fit-margin-left="20"
     fit-margin-right="20"
     fit-margin-bottom="20" />
  <g
     inkscape:groupmode="layer"
     id="layer2"
     inkscape:label="outline"
     transform="translate(107.04671,107.66527)">
    <path
       style="fill:#ffffff;stroke:#ffffff;stroke-linecap:square;display:inline"
       d="m 2412.8125,-87.125 c -41.3722,1.575925 -77.2385,28.876361 -99.6524,62.110687 C 2169.0587,159.71878 2022.3071,342.42485 1878,527 c -18.145,-25.68946 -50.7964,-38.31584 -81.7812,-36.5 -35.2206,-0.18356 -70.4595,1.20024 -105.6556,-0.57454 -161.2738,-2.05105 -322.5555,-4.97342 -483.8444,-4.48796 -48.4458,7.71911 -85.1615,54.14254 -86.7664,102.31137 -0.9592,14.9018 2.9699,29.35737 8.5961,43.03956 20.8126,58.52334 42.356,116.81054 62.1077,175.61782 C 1028.5323,695.71797 866.38559,585.06297 704.21875,474.4375 627.32648,396.39339 530.74696,335.3955 423.09375,310.90625 343.12503,299.81607 260.66622,335.48914 208.71829,395.80599 144.534,466.93127 103.53567,555.25725 71.15484,644.60416 0.17288225,838.96468 -33.034682,1044.5453 -58.15562,1249.1948 c -36.072677,302.2995 -39.03491,609.1561 -1.59438,911.4302 17.423851,129.1498 47.07257,258.4134 105.875,375.3125 32.877643,62.5415 80.67134,119.9757 145.02748,151.4307 62.04979,29.519 134.56863,30.2 200.44545,14.0604 75.5498,-18.8151 142.45097,-61.6727 217.20968,-82.7859 253.52674,-84.1699 506.94689,-168.6606 760.50489,-252.7365 200.3215,157.1279 399.5553,315.433 602,469.7188 49.7368,28.4207 120.4064,6.1599 145.6563,-44.8438 12.669,-25.1269 11.9779,-54.4116 7.779,-81.5465 -4.1289,-33.347 -10.3238,-66.4141 -13.029,-99.8909 41.8435,-15.6981 73.835,-48.6484 112.1783,-70.5158 96.292,-64.6956 191.4023,-132.2278 274.8841,-213.1092 320.8544,106.4258 641.5929,213.2003 962.3438,319.9374 80.2852,48.0119 176.0438,74.3165 269.8017,61.9476 74.3588,-11.0461 139.4645,-58.7865 180.7865,-120.2754 59.7608,-87.5859 91.5815,-190.5564 113.5885,-293.4078 50.4507,-235.5893 54.4086,-478.08 46.9733,-718.0092 -9.8351,-286.7641 -47.3547,-573.6415 -126.9141,-849.71055 -32.9283,-109.24279 -76.5898,-217.259 -146.4881,-308.32349 -40.7526,-51.42065 -97.0766,-93.35098 -162.5557,-105.84807 -60.8422,-11.26765 -123.2296,6.61733 -176.7237,35.17815 -80.1674,39.3698 -145.43,101.77055 -216.3002,155.06608 -91.2554,64.04161 -184.7128,125.02367 -276.0262,188.96002 -58.6195,39.98021 -117.1881,80.0351 -175.892,119.89146 -57.8776,-123.86053 -121.3413,-244.94579 -178.0312,-369.34375 -35.4355,-159.79853 -62.6371,-321.71813 -109.5313,-478.6875 -18.7716,-31.00739 -54.4853,-51.28708 -91,-50.21875 z"
       id="path2987-3"
       inkscape:connector-curvature="0"
       sodipodi:nodetypes="ccccccccccccccccccccccccccccccccccccccccc" />
  </g>
  <g
     inkscape:groupmode="layer"
     id="layer1"
     inkscape:label="fg"
     style="display:inline"
     transform="translate(95.744524,91.266906)"
     sodipodi:insensitive="true">
    <path
       style="fill:#000000"
       d="m 1723.2875,2517.097 -310,-243.2174 0.023,-3.8194 c 0.013,-2.1007 0.365,-5.4759 0.7824,-7.5003 l 0.7589,-3.6808 -35.7824,11.9182 c -19.6802,6.555 -226.6685,75.3144 -459.97396,152.7986 l -424.19155,140.8804 -11.3084,6.8193 c -34.6544,20.8976 -73.8286,36.5009 -110.0511,43.834 -23.2469,4.7062 -35.7833,5.9512 -60.7573,6.0336 -21.144,0.07 -24.5446,-0.1563 -33.9188,-2.2549 -30.608,-6.852 -54.162,-20.8737 -79.6769,-47.4318 -89.8489,-93.5224 -147.605697,-318.4848 -164.373797,-640.2358 -3.0432,-58.393 -3.5164,-82.6915 -3.5154,-180.5 0,-100.9511 0.4235,-121.5838 4.0342,-196.9999 15.0724,-314.8137 64.615,-617.23724 135.314197,-826.00009 67.1649,-198.32639 148.8904,-300.57221 237.1369,-296.67896 18.3533,0.80971 32.5684,4.68586 59.5,16.2244 63.4468,27.18314 117.5996,63.59635 169.08228,113.6938 l 15.16398,14.75595 410.34765,279.9483 c 225.6912,153.9717 410.5164,279.7797 410.7226,279.5735 0.6889,-0.689 47.0823,-127.9515 46.7615,-128.2723 -0.1739,-0.1738 -29.234,6.9161 -64.578,15.7554 -35.344,8.8393 -64.4572,15.8761 -64.696,15.6374 -0.618,-0.618 -152.1715,-431.08501 -151.878,-431.38858 0.3373,-0.34872 563.99,5.9849 564.431,6.34237 0.2919,0.23665 29.2914,325.14732 30.2686,339.13102 l 0.2951,4.2223 -150.4604,108.98459 c -82.7531,59.9414 -150.4603,109.4331 -150.4603,109.9816 0,0.9165 33.1733,24.0893 34.4854,24.0893 0.3176,0 1.6432,-4.2449 2.9457,-9.4332 1.3025,-5.1882 2.6384,-9.859 2.9686,-10.3795 0.8245,-1.2998 279.8679,-128.441 280.978,-128.0227 0.4893,0.1845 58.5591,71.8854 129.0439,159.3354 70.4849,87.45 128.4715,159 128.8592,159 0.6391,0 56.3193,-426.64389 55.7612,-427.26468 -0.1308,-0.14552 -25.7645,38.04875 -56.9638,84.87628 -31.1992,46.8274 -57.0728,84.7464 -57.4968,84.2645 -1.392,-1.5821 -217.3095,-326.80697 -217.7774,-328.02641 -0.2511,-0.65439 86.9844,-111.8133 193.8566,-247.01979 106.8723,-135.2065 239.6041,-303.13402 294.9596,-373.17227 55.3554,-70.038262 100.994,-127.413262 101.4189,-127.500012 0.4249,-0.0867 22.9485,103.792292 50.0523,230.842292 l 49.2796,231 80.1113,163.35957 c 44.0612,89.84777 79.9778,163.72656 79.8145,164.1751 -0.1632,0.44853 -51.3718,63.79245 -113.7968,140.76426 -108.9918,134.39016 -113.5432,139.84466 -114.5888,137.32496 -0.5989,-1.4431 -17.6989,-65.2823 -38,-141.86491 -20.3012,-76.58256 -37.0399,-138.8589 -37.1972,-138.39185 -0.2114,0.62751 27.5553,380.64486 29.0389,397.42896 0.2379,2.6916 3.0486,0.8842 75.2471,-48.3873 41.25,-28.1508 114.375,-78.0443 162.5,-110.8744 48.125,-32.8301 227.9,-155.47141 399.5,-272.53607 l 312,-212.84484 15.5,-14.96526 c 34.798,-33.59754 67.3697,-58.74132 106.5,-82.213 31.3303,-18.79299 74.6186,-38.33492 100.0178,-45.1517 8.9756,-2.40892 11.6965,-2.67908 26.9822,-2.67908 15.182,0 18.0396,0.27941 26.7207,2.61275 27.8221,7.47808 48.6479,20.42246 74.2873,46.1737 28.3902,28.51395 52.8166,64.89962 78.9622,117.62234 99.9558,201.56105 172.4461,578.35076 189.4932,984.94686 4.5652,108.8859 4.3716,238.751 -0.5083,340.9999 -14.1105,295.6579 -65.1188,516.4864 -143.9551,623.2202 -11.5746,15.6705 -31.1808,35.9243 -44.3401,45.8048 -19.4752,14.6227 -41.9298,24.2434 -64.3229,27.5591 -9.0605,1.3416 -15.3531,1.5568 -31.337,1.072 -58.3136,-1.7686 -109.6135,-17.3198 -164.8819,-49.9826 l -11.882,-7.022 -520.118,-172.8047 c -286.065,-95.0425 -520.3431,-172.809 -520.6181,-172.8142 -0.275,-0.01 -1.4,1.8977 -2.5,4.2289 -5.793,12.2769 -30.3576,39.6965 -57.5,64.1828 -42.9746,38.7692 -107.336,88.2894 -190.4248,146.5144 -61.7575,43.2768 -139.4572,94.8679 -140.4295,93.2422 -0.3551,-0.5938 -31.0207,-93.8548 -68.1457,-207.2467 -37.125,-113.3918 -67.6237,-205.5566 -67.7749,-204.8106 -0.1511,0.746 18.8752,145.5814 42.2807,321.8564 23.4055,176.275 42.4292,321.1916 42.2749,322.0369 -0.1846,1.0108 -106.3736,-81.7007 -310.2807,-241.6806 z m 201.9568,-18.1063 c -1.0355,-6.8499 -111.2605,-931.7461 -111.0665,-931.957 0.1047,-0.1138 70.1196,181.0111 155.5886,402.4999 85.469,221.4889 156.3541,405.0765 157.5226,407.9724 l 2.1245,5.2654 18.937,-15.5851 c 39.4591,-32.4747 88.8513,-75.3813 126.437,-109.8347 23.4106,-21.4597 80.1919,-77.838 79.2498,-78.6874 -0.4124,-0.3718 -3.7574,-1.6584 -7.4334,-2.8592 -5.6881,-1.858 -6.7674,-2.5839 -7.2465,-4.8737 -2.6951,-12.8832 -25.4966,-181.5096 -38.478,-284.5617 -7.8992,-62.7065 -7.928,-59.4756 0.6252,-70.0717 7.1308,-8.8339 18.3497,-17.4204 54.3105,-41.5669 17.8901,-12.0127 33.3488,-22.7487 34.3525,-23.8578 1.7593,-1.944 1.7653,-3.1067 0.1671,-32.3245 -0.9118,-16.6694 -1.8211,-30.8111 -2.0205,-31.4261 -0.6406,-1.9749 -12.3858,-7.9214 -49.7118,-25.1687 -39.7169,-18.352 -54.6635,-26.5914 -64.3675,-35.4828 -10.4905,-9.612 -9.9731,-4.7863 -8.0361,-74.9553 4.4067,-159.6314 6.6425,-233.053 7.1201,-233.8258 0.2878,-0.4656 20.7609,-14.6261 45.4959,-31.4678 24.735,-16.8417 44.9727,-31.125 44.9727,-31.7408 0,-1.2803 -21.5401,-373.70157 -28.9601,-500.70994 -2.7141,-46.45809 -4.7949,-84.60905 -4.6241,-84.77992 0.1709,-0.17086 37.9773,63.10792 84.0143,140.61951 46.0369,77.5116 84.236,141.64697 84.8867,142.52305 0.9882,1.33033 8.5176,-11.0281 45.6832,-74.98225 24.475,-42.11631 44.5,-77.41144 44.5,-78.43362 0,-2.04215 -238.6237,-501.92986 -239.6125,-501.95929 -0.3369,-0.01 -92.8983,106.61338 -205.6919,236.94089 l -205.0794,236.95913 51.9924,95.29087 c 28.5958,52.40999 52.3612,95.65995 52.812,96.11103 0.4508,0.45108 41.2059,-57.05864 90.5668,-127.79937 49.361,-70.74074 89.8464,-128.4848 89.9677,-128.32015 0.1212,0.16465 -13.1843,252.07437 -29.5679,559.79946 -16.3835,307.725 -29.8315,562.1999 -29.8843,565.4999 l -0.096,6 -2.3135,-4.5 c -1.2724,-2.475 -75.1202,-162.675 -164.1062,-355.9999 -88.986,-193.325 -162.0614,-351.801 -162.3899,-352.169 -0.521,-0.5835 -203.5052,80.702 -206.8891,82.8493 -1.0493,0.6658 -0.9549,4.1914 0.503,18.7813 l 1.7947,17.9617 52.4971,35.8446 c 28.8733,19.7146 53.0977,36.1961 53.8318,36.6256 1.0706,0.6264 1.9975,24.2202 4.6827,119.1937 4.6037,162.8326 4.8616,174.0785 4.0868,178.2087 -0.8975,4.7841 -8.8736,13.4756 -18.0434,19.6619 -10.1314,6.835 -21.0743,12.5505 -46.0237,24.0379 -12.0795,5.5619 -22.4295,10.4996 -23,10.9728 -0.7041,0.5841 -0.8766,18.0508 -0.5372,54.3949 l 0.5,53.5347 13.5,9.1697 c 28.9638,19.6734 40.9003,31.1242 44.1097,42.3146 0.9082,3.1668 -1.7114,25.9441 -13.1824,114.6175 -9.9534,76.9423 -29.908,222.1695 -31.4194,228.666 -0.44,1.8918 -7.983,4.6591 -59.5684,21.8542 -32.4855,10.8284 -58.9227,19.8299 -58.7494,20.0032 1.8883,1.8884 370.512,289.4265 371.0717,289.4477 0.419,0.016 0.5067,-1.6586 0.195,-3.7211 z M 321.78749,2463.2931 c 42.3767,-5.6849 83.6126,-24.6305 124.5,-57.2009 13.8869,-11.0622 46.8716,-43.9634 60.5045,-60.3515 C 686.19432,2130.0819 797.83692,1659.6124 769.24626,1239.7408 758.00342,1074.6328 724.49723,926.52454 672.34252,811.39482 610.79457,675.52985 523.47249,583.57739 414.87169,540.27136 330.23799,506.5225 253.72829,588.22439 189.21609,781.24071 133.24029,948.71693 91.661693,1194.0917 74.837793,1456.2408 c -8.7807,136.8189 -10.4227,284.9597 -4.5058,406.4999 7.0668,145.159 22.5542,264.5654 46.952797,362 36.0405,143.9259 89.0077,225.1663 155.5027,238.5079 8.7586,1.7573 36.0471,1.7821 49,0.044 z m -43.562,-126.49 c -12.9782,-3.1063 -30.3255,-21.1336 -46.186,-47.9964 -39.4178,-66.7616 -76.7626,-187.182 -100.1893,-323.066 -12.524,-72.6439 -21.563,-153.6194 -26.0091,-233 -4.6466,-82.9609 -3.8304,-198.3408 1.9666,-277.9999 16.617,-228.3443 69.4893,-432.2722 151.5429,-584.50009 45.7015,-84.78648 98.8226,-146.38444 132.4608,-153.59855 10.1776,-2.18272 20.8532,2.94974 35.3286,16.98485 55.7279,54.03281 119.7477,194.56417 157.6738,346.11379 30.00679,119.9048 44.96878,241.0451 44.95745,364 -0.005,49.4016 -2.01335,83.0717 -7.51732,126 -28.94726,225.7745 -144.83033,550.0245 -248.57793,695.5407 -36.1564,50.7129 -71.5588,77.2401 -95.4505,71.5216 z m 104.2213,-115.3168 c 40.6516,-70.9743 80.2469,-162.1176 119.1403,-274.2456 10.9662,-31.615 35.2004,-108.7183 35.2004,-111.9933 0,-0.5655 -4.9943,-2.5666 -11.0984,-4.4468 -27.3058,-8.4109 -56.0726,-26.7148 -77.5927,-49.3711 -60.1667,-63.3433 -86.0731,-164.1205 -66.7407,-259.6248 18.9028,-93.3818 77.4126,-164.2729 151.4318,-183.4765 17.6487,-4.5788 36.7492,-5.9827 56.5529,-4.1567 l 8.053,0.7426 -1.30335,-16.3367 c -12.05825,-151.1417 -48.23635,-307.3054 -99.57925,-429.83669 -10.1078,-24.12266 -10.9475,-26 -11.629,-26 -0.3514,0 -3.3589,3.2625 -6.6833,7.25 -94.9673,113.9095 -165.4536,239.33609 -210.8803,375.25009 -49.762,148.8849 -66.7449,307.592 -50.4541,471.4999 15.4856,155.8068 62.1449,317.9366 138.7549,482.1395 13.1049,28.0887 17.4214,36.8619 18.1331,36.8561 0.2944,0 4.2071,-6.4149 8.6947,-14.25 z m 3362.84071,240.3303 c 30.0227,-8.3 57.9199,-31.2738 82.0417,-67.5628 59.8581,-90.0511 99.5794,-268.928 112.92,-508.5131 3.539,-63.5575 4.0298,-85.6191 4.0262,-181 0,-110.7916 -1.5604,-160.7221 -8.0418,-257.9999 -23.6409,-354.8249 -90.2408,-662.00622 -175.7461,-810.60067 -27.2086,-47.28425 -58.0724,-80.39937 -87.9959,-94.41478 -11.8942,-5.57094 -21.4972,-8.00027 -34.2041,-8.65288 -20.041,-1.02929 -36.319,3.5915 -68.8801,19.55279 -72.7622,35.66755 -133.9987,93.36561 -184.7935,174.11545 -111.9747,178.009 -163.2077,462.39529 -141.7806,787.00009 21.511,325.8738 114.7305,636.3943 242.1312,806.5552 16.9383,22.6235 30.0184,37.7192 49.7843,57.4563 18.5719,18.5447 29.3902,27.8771 46.923,40.4781 34.3162,24.6634 72.2466,40.3273 110.1157,45.4739 3.575,0.4858 15.275,0.7575 26,0.6037 16.4649,-0.2362 20.7452,-0.6239 27.5,-2.4914 z m -29.2957,-125.9561 c -27.9527,-8.268 -60.0604,-41.0598 -96.9436,-99.0092 -30.0721,-47.2481 -65.7683,-118.8217 -96.6521,-193.795 -72.5088,-176.022 -125.5683,-374.9714 -137.5672,-515.8155 -3.2195,-37.7909 -3.6692,-107.8874 -1.0136,-158 8.4859,-160.1363 40.8396,-314.5027 94.211,-449.50009 37.8443,-95.72305 84.7502,-173.25578 119.1245,-196.90595 4.8528,-3.3388 14.0644,-7.09405 17.4016,-7.09405 4.6395,0 14.285,3.4875 21.5187,7.78039 50.5144,29.97818 115.165,127.98906 163.6542,248.10104 58.4818,144.86496 94.9844,320.99496 106.0318,511.61866 4.5314,78.1895 4.3285,178.872 -0.5249,260.4999 -11.7723,197.9958 -51.584,388.2142 -106.2782,507.7916 -20.4652,44.7428 -43.5643,76.5146 -60.9911,83.8905 -5.5371,2.3435 -14.8974,2.53 -21.9711,0.4377 z m -60.4381,-135.6198 c 79.7754,-171.3946 125.7655,-334.1846 140.6909,-498 3.4149,-37.4807 4.039,-53.9533 4.0162,-105.9999 -0.023,-51.8777 -0.5333,-64.9648 -4.038,-103.5 -18.5049,-203.4644 -92.8601,-396.1204 -218.8326,-567.00009 -16.7082,-22.66452 -49.0784,-63 -50.559,-63 -0.3788,0 -1.8712,2.8125 -3.3164,6.25 -1.4452,3.4375 -4.72,11.2 -7.2773,17.25 -42.5273,100.6097 -76.5159,231.34539 -92.4227,355.50009 -3.2808,25.6073 -7.5337,66.4227 -8.6361,82.8828 l -0.6954,10.3828 6.9021,-0.743 c 10.2437,-1.1028 30.9855,-0.8687 39.9923,0.4513 50.7373,7.4356 95.6735,38.08 129.0793,88.0261 40.8565,61.0858 55.9821,147.5712 39.7005,226.9999 -8.3217,40.5967 -25.7928,80.0221 -49.521,111.7493 -8.1165,10.8527 -29.1111,32.435 -38.349,39.4225 -20.2318,15.3031 -44.0706,27.4747 -62.25,31.7834 -2.8875,0.6843 -5.25,1.6414 -5.25,2.1268 0,1.8931 16.6409,55.9074 25.6997,83.418 25.1966,76.5195 53.0991,148.5752 81.5075,210.4859 15.2177,33.1641 42.5803,86.0445 53.3553,103.1131 l 2.7167,4.3035 5.0199,-9.9513 c 2.761,-5.4731 8.3712,-17.1512 12.4671,-25.9512 z m -2596.8164,66.5484 c 237.1853,-97.301 431.4474,-177.1123 431.6936,-177.3585 1.2456,-1.2456 13.2022,-52.0887 18.8579,-80.1899 10.5879,-52.6072 18.5912,-100.7362 27.5208,-165.5 5.5783,-40.4577 5.8632,-45.3444 2.974,-51.0077 -5.5476,-10.8741 -19.4855,-22.2759 -57.5985,-47.1178 -41.4581,-27.0222 -55.5857,-38.6364 -60.9104,-50.0739 -2.9608,-6.36 -3.0541,-8.955 -0.5222,-14.5325 5.4332,-11.9689 23.1871,-23.1188 70.535,-44.2973 47.0498,-21.0453 60.4369,-28.2383 71.0735,-38.1883 8.9215,-8.3457 9.6484,-10.6778 8.934,-28.6629 -0.3194,-8.0407 -1.7248,-55.1195 -3.123,-104.6195 -1.3983,-49.5 -3.0693,-108 -3.7134,-130 l -1.1711,-40 -382.8262,-247.8404 C 969.90679,911.08803 797.47366,799.72115 797.2765,799.91832 c -0.19717,0.19717 1.21557,3.95037 3.13943,8.34044 1.92386,4.39007 7.26881,17.43195 11.87766,28.98195 77.69204,194.69999 111.51377,445.98779 95.96523,713.00009 -17.74386,304.712 -97.603,596.8962 -218.21455,798.3911 -12.88523,21.5262 -37.76868,58.4891 -52.37705,77.8029 -8.15236,10.7783 -13.17957,18.2184 -12.07264,17.8671 1.04323,-0.3311 195.95745,-80.2119 433.14272,-177.5128 z m -90.89351,-147.8232 c 0.031,-0.3988 20.61849,-62.3752 45.75001,-137.7252 l 45.6937,-137 131,-24.7071 c 72.05,-13.5889 131.9696,-24.6139 133.1546,-24.5 2.0334,0.1954 1.4662,2.118 -10.0731,34.1481 -7.0152,19.4726 -12.8297,34.1417 -13.6398,34.4118 -0.7766,0.2588 -15.8069,3.2347 -33.4006,6.6131 l -31.9885,6.1424 -24.6965,75.4458 c -13.5831,41.4953 -25.0699,75.9943 -25.5263,76.6645 -0.4564,0.6702 -48.3048,21.074 -106.3298,45.3418 -121.11995,50.6558 -110.01593,46.0943 -109.94371,45.1648 z m 234.94371,-645.9923 c -65.175,-13.4188 -118.8104,-24.6982 -119.1898,-25.0653 -0.631,-0.6106 -39.8722,-218.4084 -39.434,-218.8678 0.2043,-0.2142 180.9726,53.6632 181.1799,54.0001 0.068,0.1101 7.5078,42.6444 16.5335,94.5206 9.0257,51.8762 16.6831,94.7729 17.0164,95.326 0.3333,0.5531 13.3833,3.661 29,6.9063 15.6167,3.2454 29.3868,6.1398 30.6002,6.432 2.2744,0.5478 3.8343,5.1318 3.1305,9.1996 -0.3162,1.8275 -7.5683,0.4574 -118.8367,-22.4515 z m 2183.8067,970.0171 c -0.7187,-0.9625 -7.5474,-10.075 -15.1748,-20.25 -33.0812,-44.1302 -61.4658,-90.9361 -90.9649,-150 -161.1575,-322.6747 -222.1775,-799.5114 -151.5649,-1184.3932 18.6891,-101.86709 47.19,-198.91125 81.8,-278.5252 2.2519,-5.18013 3.919,-9.59383 3.7046,-9.80822 -0.2144,-0.2144 -70.7511,45.15952 -156.7483,100.83092 -85.9971,55.6714 -257.8334,166.8978 -381.8584,247.1695 -124.025,80.2718 -225.9132,146.3344 -226.4182,146.8057 -0.9321,0.8699 -1.525,18.1999 -6.0185,175.9206 -3.5462,124.4678 -3.4887,115.7725 -0.7944,120.1287 7.2914,11.7891 24.0327,21.6722 76.9324,45.4168 49.051,22.0169 64.9135,31.9384 71.404,44.6608 4.1326,8.1005 0.6918,16.7447 -11.3102,28.4143 -8.8282,8.5836 -18.7513,15.8304 -45.7951,33.4438 -32.5884,21.2246 -42.1874,28.1864 -51.694,37.4919 -8.7774,8.5918 -12.2473,14.4346 -12.284,20.6844 -0.03,5.0519 7.9635,64.3761 13.576,100.7592 9.3669,60.7203 20.5862,119.0201 31.0139,161.1601 l 6.5972,26.66 30.6454,12.5833 c 360.0422,147.836 834.8384,342.509 835.4522,342.5468 0.4437,0.027 0.2187,-0.7377 -0.5,-1.7002 z m -451.2566,-368.6665 -107.95,-45.1864 -24.8355,-75.934 c -13.6596,-41.7638 -25.1571,-76.2115 -25.5501,-76.5505 -0.393,-0.339 -15.3263,-3.4073 -33.1851,-6.8184 -17.8588,-3.4111 -32.6531,-6.3846 -32.8763,-6.6078 -1.303,-1.303 -24.6519,-68.0499 -23.9078,-68.3447 0.4974,-0.197 60.4982,10.828 133.3351,24.5 l 132.4307,24.8583 45.5576,137.3535 c 25.0567,75.5444 45.4167,137.4801 45.2445,137.6349 -0.1723,0.1548 -48.8907,-20.0524 -108.2631,-44.9049 z m -245.211,-581.799 c 0.3293,-2.7806 0.8112,-5.2681 1.0709,-5.5277 0.2597,-0.2597 14.059,-3.3073 30.6652,-6.7724 16.6061,-3.4651 30.4863,-6.7749 30.8449,-7.355 0.3586,-0.5802 8.0162,-43.2591 17.017,-94.8421 9.0008,-51.5829 16.7107,-94.1784 17.1332,-94.6565 0.7556,-0.8549 180.1803,-54.7134 180.6635,-54.2303 0.248,0.2481 -38.7312,218.9895 -39.0595,219.1917 -0.096,0.059 -46.7493,9.6758 -103.6743,21.3706 -56.925,11.6948 -110.6459,22.7515 -119.3798,24.5703 l -15.8798,3.3071 0.5987,-5.0557 z m -1058.0585,-468.642 105.7194,-88.35764 -0.031,-4.64243 c -0.05,-7.54984 -12.6941,-221.20075 -13.1157,-221.62233 -0.2122,-0.21225 -72.9748,4.87138 -161.6947,11.29696 l -161.3087,11.68287 0.4674,2.50004 c 0.2571,1.37502 6.2148,50.42504 13.2393,109.00004 7.0245,58.575 12.8561,106.62073 12.9592,106.76829 0.103,0.14755 45.713,-10.15601 101.3556,-22.8968 55.6425,-12.7408 101.3909,-22.94244 101.663,-22.67032 0.2721,0.27213 -25.8368,48.98487 -58.0199,108.25062 -32.183,59.2657 -58.5146,107.973 -58.5146,108.2386 0,0.2655 2.6013,-1.6937 5.7806,-4.3538 3.1793,-2.6601 53.3543,-44.5974 111.5,-93.1941 z"
       id="path2987"
       inkscape:connector-curvature="0" />
  </g>
</svg>
